<svg width="232" height="18" viewBox="0 0 232 18" fill="none" xmlns="http://www.w3.org/2000/svg">
<g clip-path="url(#clip0_114_1501)">
<path d="M112.757 1.51043C112.757 1.05833 112.384 0.680699 111.932 0.680699H102.736C102.289 0.680699 101.912 1.04238 101.912 1.51043C101.912 1.97848 102.268 2.32421 102.736 2.32421H106.603V17.2381H108.097V2.32421H111.948C112.395 2.34548 112.751 1.96785 112.751 1.51043M80.5301 0.606236C80.2109 0.606236 79.9875 0.813669 79.8386 1.07961C79.7057 1.34555 73.706 16.318 73.706 16.318C73.6688 16.4137 73.6529 16.5041 73.6529 16.5999C73.6529 17.0147 73.972 17.3392 74.3815 17.3392C74.7007 17.3392 74.9613 17.153 75.073 16.8658L77.4079 11.0789H83.6682L86.152 17.2434H87.7423C87.7423 17.2434 81.3704 1.32427 81.2428 1.05833C81.0939 0.813669 80.8492 0.606236 80.5301 0.606236ZM78.0834 9.43012L80.5513 3.30818L83.0193 9.43012H78.0834ZM51.1118 0.606236C50.814 0.606236 50.5693 0.813669 50.4416 1.05833C50.3087 1.32427 45.5643 13.1586 45.5643 13.1586C45.5643 13.1586 40.8146 1.30832 40.687 1.05833C40.554 0.792394 40.3147 0.606236 40.0168 0.606236C39.6604 0.606236 39.3839 0.872176 39.2881 1.21258C39.1977 1.55298 36.5224 16.4669 36.5224 16.4669C36.5224 16.5254 36.5011 16.5626 36.5011 16.6158C36.5011 17.0307 36.8362 17.3551 37.2298 17.3551C37.5861 17.3551 37.884 17.0892 37.9584 16.7488L40.2774 3.98899C40.2774 3.98899 44.7452 15.1425 44.8782 15.4084C45.0112 15.6744 45.2505 15.8818 45.5696 15.8818C45.8675 15.8818 46.1281 15.6744 46.2611 15.4084C46.394 15.1425 50.8618 3.98899 50.8618 3.98899L53.2712 17.2594H54.7658C54.7658 17.2594 51.9415 1.55298 51.8511 1.21258C51.7394 0.872176 51.4788 0.606236 51.1225 0.606236M65.1322 2.24974C66.9086 2.24974 68.5734 2.94651 69.8233 4.2177C70.1212 4.52087 70.685 4.52087 70.9828 4.2177C71.1318 4.06345 71.2275 3.85602 71.2275 3.63263C71.2275 3.40924 71.1318 3.19649 70.9828 3.04756L70.8924 2.95182C69.3393 1.44129 67.3022 0.606236 65.1375 0.606236C60.5793 0.606236 56.8561 4.36662 56.8561 8.97802C56.8561 13.5894 60.5739 17.3551 65.1375 17.3551C67.5469 17.3551 69.717 16.318 71.2328 14.6319L70.0733 13.4618C68.8606 14.8234 67.1001 15.6903 65.1375 15.6903C61.4728 15.6903 58.4837 12.6639 58.4837 8.96206C58.4837 5.26018 61.4728 2.24974 65.1375 2.24974M9.01888 2.24974C10.7954 2.24974 12.4601 2.94651 13.7313 4.2177C14.0292 4.52087 14.593 4.52087 14.8908 4.2177C15.0398 4.06345 15.1355 3.85602 15.1355 3.63263C15.1355 3.40924 15.061 3.19649 14.8908 3.04756L14.8004 2.95182C13.242 1.43597 11.2049 0.606236 9.04015 0.606236C4.47663 0.606236 0.758789 4.36662 0.758789 8.97802C0.758789 13.5894 4.47663 17.3551 9.04015 17.3551C11.4496 17.3551 13.6196 16.318 15.1355 14.6319L13.976 13.4618C12.7633 14.8234 10.9868 15.6903 9.04015 15.6903C5.3755 15.6903 2.38634 12.6639 2.38634 8.96206C2.36506 5.27614 5.35955 2.24974 9.0242 2.24974M97.3534 9.07376C96.9066 8.84505 94.2153 7.43025 93.8217 7.22282C92.4016 6.4835 91.8963 5.84525 91.8963 4.74958C91.8963 3.21776 93.1303 2.23379 95.0557 2.23379C96.178 2.23379 97.2789 2.72312 97.9172 3.10075C98.0289 3.15926 98.1778 3.19649 98.3108 3.19649C98.7576 3.19649 99.1352 2.83481 99.1352 2.38271C99.1352 2.07954 98.965 1.8136 98.7257 1.66468C97.9225 1.21258 96.5556 0.584961 95.0823 0.584961C92.258 0.584961 90.2954 2.28698 90.2954 4.74426C90.2954 6.9356 91.7155 7.97809 93.1196 8.69612C93.5132 8.90355 96.2418 10.3237 96.6513 10.5471C97.7364 11.1162 98.3321 11.9831 98.3321 12.9671C98.3321 14.2915 97.2311 15.6903 95.1727 15.6903C93.1143 15.6903 91.6198 14.3287 91.2102 13.9139L91.0772 13.7809L89.8645 14.8978L90.0135 15.0308C90.556 15.5627 92.4974 17.3179 95.1727 17.3179C98.1619 17.3179 99.9596 15.0893 99.9596 12.9299C99.9383 11.3608 99.0076 9.94604 97.3641 9.07376M25.9911 0.606236C21.4329 0.606236 17.7098 4.36662 17.7098 8.97802C17.7098 13.5894 21.4276 17.3551 25.9911 17.3551C30.5547 17.3551 34.2725 13.5947 34.2725 8.97802C34.2725 4.3613 30.5494 0.606236 25.9911 0.606236ZM25.9911 15.6903C22.3265 15.6903 19.3373 12.6639 19.3373 8.96206C19.3373 5.26018 22.3265 2.23379 25.9911 2.23379C29.6558 2.23379 32.645 5.26018 32.645 8.96206C32.6237 12.6852 29.6558 15.6903 25.9911 15.6903Z" fill="#B3B3B3"/>
<path d="M221.047 14.9144C221.382 15.3505 222.935 17.393 226.355 17.393C229.775 17.393 231.999 15.4463 231.999 12.7071C231.999 10.9094 231.286 9.47328 228.669 8.19145C227.956 7.85105 225.978 6.88834 225.978 6.88834C224.951 6.37774 224.483 5.7714 224.483 4.94166C224.483 4.11193 225.196 3.12796 226.914 3.12796C227.903 3.12796 228.669 3.4524 229.084 3.63856C229.27 3.7343 229.738 3.96301 230.185 3.96301C230.765 3.96301 231.398 3.54814 231.398 2.69713C231.398 1.9791 230.892 1.60146 230.446 1.39403C229.733 1.05363 228.632 0.564296 226.781 0.564296C223.845 0.564296 221.68 2.43651 221.68 5.04272C221.68 7.42554 223.249 8.61695 225.175 9.54242C225.531 9.71262 226.951 10.4094 227.345 10.6009C228.557 11.1859 229.196 11.755 229.196 12.7762C229.196 13.8932 228.169 14.8187 226.616 14.8187C224.393 14.8187 223.196 13.3454 222.989 13.1007L221.047 14.9357V14.9144ZM207.575 14.9144C207.91 15.3505 209.479 17.393 212.899 17.393C216.319 17.393 218.526 15.4463 218.526 12.7071C218.526 10.9094 217.835 9.47328 215.197 8.19145C214.505 7.85105 212.521 6.88834 212.521 6.88834C211.473 6.37774 211.005 5.7714 211.005 4.94166C211.005 4.11193 211.718 3.12796 213.452 3.12796C214.441 3.12796 215.191 3.4524 215.601 3.63856C215.808 3.7343 216.271 3.96301 216.723 3.96301C217.303 3.96301 217.941 3.54814 217.941 2.69713C217.941 1.9791 217.436 1.60146 216.989 1.39403C216.276 1.05363 215.159 0.564296 213.324 0.564296C210.388 0.564296 208.224 2.43651 208.224 5.04272C208.224 7.42554 209.814 8.61695 211.718 9.54242C212.09 9.71262 213.51 10.4094 213.904 10.6009C215.101 11.1859 215.734 11.755 215.734 12.7762C215.734 13.8932 214.707 14.8187 213.154 14.8187C210.91 14.8187 209.734 13.3454 209.527 13.1007L207.564 14.9357L207.575 14.9144ZM153.217 14.9144C153.552 15.3505 155.105 17.393 158.525 17.393C161.945 17.393 164.168 15.4463 164.168 12.7071C164.168 10.9094 163.477 9.47328 160.838 8.19145C160.126 7.85105 158.163 6.88834 158.163 6.88834C157.115 6.37774 156.647 5.7714 156.647 4.94166C156.647 4.11193 157.36 3.12796 159.094 3.12796C160.083 3.12796 160.849 3.4524 161.243 3.63856C161.45 3.7343 161.913 3.96301 162.365 3.96301C162.945 3.96301 163.578 3.54814 163.578 2.69713C163.578 1.9791 163.072 1.60146 162.626 1.39403C161.913 1.05363 160.812 0.564296 158.961 0.564296C156.025 0.564296 153.86 2.43651 153.86 5.04272C153.86 7.42554 155.451 8.61695 157.355 9.54242C157.711 9.71262 159.131 10.4094 159.525 10.6009C160.737 11.1859 161.376 11.755 161.376 12.7762C161.376 13.8932 160.349 14.8187 158.796 14.8187C156.573 14.8187 155.376 13.3454 155.169 13.1007L153.206 14.9357L153.217 14.9144ZM177.258 0.54834C176.454 0.54834 175.933 1.13341 175.933 1.83549V16.0899C175.933 16.8079 176.55 17.377 177.258 17.377C177.965 17.377 178.566 16.8079 178.566 16.0899V5.80331C178.566 5.80331 185.034 14.1591 186.736 16.3718C187.166 16.9196 187.464 17.393 188.23 17.393C188.996 17.393 189.517 16.8239 189.517 16.1058V0.660035H186.901V12.1912C186.901 12.1912 179.704 2.85138 178.694 1.54827C178.226 0.941931 177.869 0.54834 177.252 0.54834M130.809 8.28187C131.277 8.51058 133.239 9.36158 133.239 12.3082C133.239 15.1059 131.181 17.2813 128.229 17.2813H120.921V1.92591C120.921 1.14936 121.442 0.622803 122.208 0.622803H127.889C130.654 0.622803 132.468 2.30354 132.468 4.85656C132.468 7.03195 131.255 7.99465 130.803 8.27655M123.575 7.29789H127.553C128.974 7.29789 129.777 6.38838 129.777 5.27675C129.777 4.16512 129.048 3.25561 127.553 3.25561H123.575V7.30321V7.29789ZM127.724 14.7282C129.591 14.7282 130.548 13.6113 130.548 12.2497C130.548 10.8881 129.633 9.75517 127.724 9.75517H123.575V14.7282H127.724ZM203.532 3.27156C204.41 3.27156 204.937 2.70245 204.937 1.96846C204.937 1.23446 204.394 0.665353 203.532 0.665353H195.4C194.65 0.665353 194.108 1.21319 194.108 1.96846V16.0314C194.108 16.7707 194.65 17.3185 195.4 17.3185H204.841V14.7123H196.767V9.87219H202.862C203.777 9.87219 204.304 9.32435 204.304 8.56908C204.304 7.81381 203.798 7.26598 202.862 7.26598H196.767V3.27688H203.532V3.27156ZM139.255 10.6806V1.85144C139.255 1.13341 138.734 0.54834 137.93 0.54834C137.127 0.54834 136.601 1.13341 136.601 1.85144V10.5849C136.601 14.3293 139.202 17.3717 143.366 17.3717C147.531 17.3717 150.132 14.3293 150.132 10.5849V0.622803H147.462V10.6594C147.462 12.872 146.004 14.8399 143.366 14.8399C140.712 14.8612 139.255 12.8933 139.255 10.6806ZM169.37 0.54834C170.194 0.54834 170.694 1.13341 170.694 1.85144V17.2972H168.04V1.85144C168.04 1.13341 168.545 0.54834 169.364 0.54834" fill="#B3B3B3"/>
</g>
<defs>
<clipPath id="clip0_114_1501">
<rect width="231.245" height="16.8446" fill="white" transform="translate(0.758789 0.54834)"/>
</clipPath>
</defs>
</svg>
