<svg width="104" height="26" viewBox="0 0 104 26" fill="none" xmlns="http://www.w3.org/2000/svg">
<g clip-path="url(#clip0_114_1505)">
<path d="M100.871 23.6196C100.871 23.4049 100.91 23.2021 100.994 23.0113C101.077 22.8205 101.189 22.6575 101.332 22.5144C101.475 22.3713 101.638 22.2599 101.829 22.1765C102.02 22.093 102.218 22.0532 102.437 22.0532C102.656 22.0532 102.854 22.093 103.045 22.1765C103.236 22.2599 103.399 22.3713 103.542 22.5144C103.681 22.6575 103.797 22.8205 103.876 23.0113C103.96 23.2021 103.999 23.4049 103.999 23.6196C103.999 23.8342 103.96 24.037 103.876 24.2278C103.793 24.4186 103.681 24.5816 103.542 24.7248C103.399 24.8679 103.236 24.9792 103.045 25.0627C102.854 25.1462 102.656 25.1859 102.437 25.1859C102.218 25.1859 102.02 25.1462 101.829 25.0627C101.638 24.9792 101.475 24.8679 101.332 24.7248C101.189 24.5816 101.077 24.4186 100.994 24.2278C100.91 24.037 100.871 23.8382 100.871 23.6196ZM101.272 23.6196C101.272 23.7865 101.304 23.9456 101.364 24.0927C101.423 24.2397 101.507 24.367 101.61 24.4783C101.713 24.5896 101.837 24.6731 101.98 24.7367C102.123 24.8003 102.274 24.8321 102.437 24.8321C102.6 24.8321 102.751 24.8003 102.894 24.7367C103.037 24.6731 103.157 24.5896 103.264 24.4783C103.367 24.367 103.451 24.2397 103.51 24.0927C103.57 23.9456 103.602 23.7865 103.602 23.6196C103.602 23.4526 103.57 23.2936 103.51 23.1465C103.451 22.9994 103.367 22.8722 103.264 22.7609C103.16 22.6495 103.037 22.5661 102.894 22.5025C102.755 22.4388 102.6 22.407 102.437 22.407C102.274 22.407 102.123 22.4388 101.98 22.5025C101.837 22.5661 101.717 22.6495 101.61 22.7609C101.507 22.8722 101.423 22.9994 101.364 23.1465C101.304 23.2936 101.272 23.4526 101.272 23.6196ZM101.833 22.7847H102.357C102.453 22.7847 102.544 22.7927 102.632 22.8046C102.719 22.8205 102.799 22.8443 102.866 22.8801C102.934 22.9159 102.99 22.9636 103.033 23.0272C103.077 23.0908 103.097 23.1703 103.097 23.2697C103.097 23.3413 103.085 23.4089 103.065 23.4685C103.041 23.5281 103.013 23.5798 102.978 23.6235C102.942 23.6633 102.902 23.6991 102.858 23.7269C102.815 23.7547 102.771 23.7706 102.727 23.7746L103.149 24.4266H102.707L102.334 23.7945H102.238V24.4266H101.837V22.7887L101.833 22.7847ZM102.23 23.4645H102.429C102.453 23.4645 102.481 23.4645 102.512 23.4606C102.544 23.4606 102.572 23.4486 102.6 23.4407C102.628 23.4287 102.648 23.4128 102.668 23.389C102.687 23.3651 102.695 23.3333 102.695 23.2896C102.695 23.2459 102.687 23.2141 102.668 23.1902C102.648 23.1664 102.628 23.1505 102.6 23.1385C102.572 23.1266 102.544 23.1187 102.512 23.1187C102.481 23.1187 102.453 23.1147 102.429 23.1147H102.23V23.4685V23.4645Z" fill="#B3B3B3"/>
<path d="M33.8681 1.11426H30.3657V4.61668V11.375V14.8775V21.6V25.1025H33.8681H46.069V21.6H33.8681V14.8775H42.5626V11.375H33.8681V4.61668H46.069V1.11426H33.8681Z" fill="#B3B3B3"/>
<path d="M70.1485 1.09863H66.6461V11.3753H54.4453V1.09863H50.9429V11.3753V14.8777V25.0868H54.4453V14.8777H66.6461V25.0868H70.1485V14.8777H70.1525V11.3753H70.1485V1.09863Z" fill="#B3B3B3"/>
<path d="M25.3648 11.3751H13.0526V14.8775H21.8146C20.9997 18.9683 17.382 22.0613 13.0526 22.0613C8.12699 22.0613 4.1157 18.054 4.1157 13.1243C4.1157 8.19472 8.12301 4.19139 13.0526 4.19139C16.0184 4.19139 18.6462 5.64244 20.2722 7.8727H24.3232C22.3434 3.63084 18.0419 0.688965 13.0526 0.688965C6.18296 0.688965 0.613281 6.25865 0.613281 13.1283C0.613281 19.998 6.18296 25.5677 13.0526 25.5677C19.326 25.5677 24.514 20.9203 25.3648 14.8815C25.4443 14.321 25.488 13.7485 25.488 13.1681C25.488 13.1561 25.488 13.1442 25.488 13.1323C25.488 13.1204 25.488 13.1084 25.488 13.0965C25.488 12.5161 25.4443 11.9436 25.3648 11.3831V11.3751Z" fill="#B3B3B3"/>
<path d="M96.1206 18.4196L94.602 14.9171L90.1335 4.62058L88.6149 1.11816H84.047L82.5284 4.62058L78.0599 14.9171L76.5413 18.4196L73.6392 25.1064H77.4556L80.3578 18.4196H92.3081L95.2102 25.1064H99.0267L96.1246 18.4196H96.1206ZM81.8724 14.9171L86.329 4.65239L90.7855 14.9171H81.8764H81.8724Z" fill="#B3B3B3"/>
</g>
<defs>
<clipPath id="clip0_114_1505">
<rect width="103.387" height="24.8747" fill="white" transform="translate(0.613281 0.688965)"/>
</clipPath>
</defs>
</svg>
