<svg width="84" height="41" viewBox="0 0 84 41" fill="none" xmlns="http://www.w3.org/2000/svg">
<g clip-path="url(#clip0_114_1491)">
<g filter="url(#filter0_d_114_1491)">
<path d="M29.3784 31.1204C29.3784 25.8211 33.5698 21.4686 38.9711 21.4702C44.3952 21.4726 48.6197 25.7539 48.6205 31.1229C48.6213 36.4918 44.4162 40.7366 38.9574 40.7309C33.5455 40.7253 29.3719 36.423 29.3784 31.1204ZM44.3142 31.1552C44.4033 28.2379 41.8828 25.7515 39.0222 25.7523C36.1153 25.7531 33.6483 28.0792 33.6556 31.1407C33.6629 34.156 36.1129 36.4246 38.9679 36.4537C41.8463 36.4829 44.3846 34.0078 44.3142 31.1561V31.1552Z" fill="#B3B3B3"/>
</g>
<path d="M51.8105 31.1144C51.8105 28.2522 51.8105 25.3907 51.8105 22.5285C51.8105 21.853 51.9353 21.7291 52.6116 21.7291C55.1353 21.7291 57.6598 21.708 60.1827 21.7347C62.7858 21.7615 64.6907 22.9715 65.712 25.3599C66.7358 27.7549 66.0085 30.3499 63.7747 32.0021C63.3786 32.2945 62.9348 32.5286 62.495 32.7537C62.2553 32.876 62.2221 32.9805 62.3492 33.2137C63.2725 34.9057 64.1845 36.6033 65.0997 38.2992C65.3225 38.7115 65.5484 39.1213 65.7671 39.5352C66.0733 40.1167 65.8797 40.4617 65.2382 40.465C64.1586 40.4698 63.079 40.4617 61.9994 40.469C61.6827 40.4715 61.4818 40.3589 61.3336 40.0616C60.3269 38.0352 59.278 36.029 58.3029 33.9872C57.9838 33.3182 57.6177 33.0161 56.8442 33.0882C55.9363 33.1733 55.9905 33.008 55.9905 33.9508C55.9914 35.8679 55.9922 37.7849 55.9905 39.7012C55.9905 40.3402 55.8642 40.465 55.2349 40.4658C54.344 40.4674 53.4531 40.4674 52.563 40.4658C51.9434 40.465 51.8122 40.3321 51.8122 39.6996C51.8114 36.8373 51.8122 33.9759 51.8122 31.1136L51.8105 31.1144ZM58.2138 25.5454C57.6072 25.5454 56.9997 25.5592 56.3939 25.5397C56.0999 25.53 55.9833 25.6183 55.9865 25.9228C55.9978 27.0689 55.9946 28.2157 55.9881 29.3618C55.9865 29.6266 56.0667 29.753 56.3591 29.7505C57.5594 29.7384 58.7597 29.7683 59.9592 29.7376C61.1765 29.7068 61.9888 28.679 62.005 27.5646C62.0204 26.4874 61.0323 25.5568 59.913 25.547C59.3469 25.5422 58.7807 25.5462 58.2138 25.5462V25.5454Z" fill="#B3B3B3"/>
<path d="M6.86498 40.7492C4.92279 40.6715 3.07617 40.2997 1.46605 39.1351C1.44418 39.1197 1.41826 39.1091 1.39801 39.0929C0.427729 38.2976 0.578375 38.296 1.06433 37.4585C1.35266 36.9612 1.62722 36.4566 1.91312 35.9577C2.24438 35.3795 2.5643 35.3179 3.13043 35.637C3.81644 36.0233 4.5073 36.4162 5.23461 36.7102C5.87688 36.9693 6.5564 37.1362 7.2829 36.9637C8.63142 36.6446 9.04043 35.2199 8.10821 34.1281C7.59067 33.5223 6.90791 33.1481 6.19032 32.8517C5.04995 32.3803 3.93712 31.8668 2.96035 31.0998C1.8297 30.2113 0.954178 29.1236 0.740359 27.6731C0.4172 25.4725 1.25709 23.5416 3.19928 22.3891C4.6296 21.5395 6.19355 21.3541 7.83121 21.5452C9.56768 21.7477 11.1001 22.4248 12.5004 23.4364C12.8689 23.702 12.9442 23.9588 12.7118 24.3338C12.268 25.0513 11.8055 25.7592 11.3195 26.4485C11.0466 26.8364 10.6854 26.8526 10.2691 26.6064C9.31418 26.0419 8.38115 25.4336 7.26913 25.1923C6.31828 24.9857 5.30912 25.3202 5.02565 26.1253C4.84504 26.638 5.01593 27.2973 5.54805 27.7824C6.22109 28.3963 7.0383 28.7648 7.86928 29.1018C9.40813 29.7246 10.866 30.4657 11.9812 31.7502C13.0131 32.9384 13.4513 34.3322 13.2237 35.8646C12.9475 37.7177 11.8905 39.0751 10.2407 39.9628C9.1854 40.5306 8.04098 40.7241 6.86417 40.7517L6.86498 40.7492Z" fill="#B3B3B3"/>
<path d="M75.5522 27.4392C76.4383 26.132 77.2935 24.8726 78.1472 23.6116C78.5011 23.0892 78.8316 22.5489 79.2171 22.0525C79.3443 21.888 79.6107 21.7487 79.8181 21.7431C80.8969 21.7123 81.9765 21.7163 83.0553 21.7406C83.24 21.7447 83.5137 21.8613 83.5793 22.0022C83.6555 22.1675 83.6158 22.4631 83.5089 22.6234C81.6396 25.4298 79.7557 28.2257 77.8654 31.0175C77.6766 31.2969 77.59 31.5731 77.5916 31.9124C77.6021 34.4896 77.5981 37.0676 77.5973 39.6447C77.5973 40.3356 77.4652 40.4652 76.7687 40.4652C75.8916 40.4652 75.0144 40.4668 74.1381 40.4652C73.5574 40.4636 73.3889 40.2975 73.3889 39.7241C73.3873 37.0927 73.393 34.4613 73.38 31.8298C73.3792 31.6055 73.3063 31.3487 73.184 31.1616C71.3301 28.3302 69.4576 25.5108 67.6069 22.6777C67.4895 22.4979 67.4117 22.1796 67.4943 22.0152C67.5729 21.8581 67.8839 21.7463 68.0953 21.7406C69.1198 21.7131 70.146 21.7374 71.1714 21.7228C71.5221 21.718 71.7423 21.8565 71.9343 22.1432C73.0334 23.7881 74.147 25.4242 75.2574 27.0618C75.3319 27.172 75.4218 27.2724 75.553 27.4384L75.5522 27.4392Z" fill="#B3B3B3"/>
<path d="M23.6928 25.6722C23.6928 25.9022 23.6928 26.0748 23.6928 26.2473C23.6928 30.7156 23.6928 35.1839 23.6928 39.6523C23.6928 40.3026 23.5324 40.4646 22.8861 40.4654C21.9952 40.4662 21.1043 40.467 20.2134 40.4654C19.6003 40.4646 19.4504 40.3164 19.4496 39.7041C19.4488 35.209 19.4496 30.7132 19.4488 26.2181C19.4488 25.8547 19.2663 25.673 18.9013 25.673C17.8759 25.673 16.8498 25.6747 15.8244 25.6714C15.2931 25.6698 15.1206 25.4973 15.1182 24.9725C15.1149 24.122 15.1149 23.2716 15.1182 22.4212C15.1198 21.9037 15.2834 21.7311 15.788 21.7303C19.6343 21.7279 23.4814 21.7279 27.3277 21.7303C27.8307 21.7303 28.0105 21.9012 28.0178 22.4123C28.0299 23.2765 28.0307 24.1407 28.0178 25.004C28.0105 25.4916 27.8112 25.6706 27.3156 25.6722C26.129 25.6763 24.9433 25.6738 23.692 25.6738L23.6928 25.6722Z" fill="#B3B3B3"/>
<path d="M36.3958 8.42473C37.0299 9.60478 37.6495 10.7589 38.2699 11.9131C38.5421 12.4193 38.8239 12.9206 39.0855 13.4317C39.2831 13.8172 39.1349 14.0537 38.6968 14.0577C37.8739 14.0658 37.051 14.0529 36.2281 14.0642C35.9617 14.0674 35.8134 13.9573 35.6984 13.7248C34.916 12.1431 34.1207 10.567 33.3383 8.986C33.2014 8.70982 33.0419 8.56565 32.6985 8.57375C31.7331 8.59643 31.7322 8.5778 31.7322 9.56348C31.7322 10.8593 31.7339 12.1544 31.7314 13.4503C31.7306 13.9808 31.6521 14.0585 31.1208 14.061C30.4323 14.0634 29.7447 14.0561 29.0563 14.0634C28.7202 14.0666 28.5695 13.9281 28.5703 13.5799C28.5752 9.22088 28.5752 4.8627 28.5703 0.503702C28.5703 0.137618 28.7339 0.00479079 29.0854 0.00641063C31.1499 0.0145098 33.2144 -0.0227465 35.2781 0.0266586C36.8736 0.0647249 38.4473 1.17918 39.0118 2.71236C39.8225 4.91534 39.1009 6.83971 37.0672 8.04001C36.859 8.16312 36.6477 8.28056 36.395 8.42554L36.3958 8.42473ZM31.7355 2.93832C31.7355 3.90132 31.7298 4.85622 31.7476 5.8103C31.7493 5.87915 31.9234 6.00144 32.019 6.00306C32.9504 6.01602 33.8818 6.01602 34.8124 5.99901C34.993 5.99577 35.1801 5.92126 35.3502 5.84837C35.862 5.62888 36.2986 4.85379 36.2435 4.2917C36.1844 3.68993 35.6652 2.97882 35.1315 2.95452C34.0178 2.9035 32.901 2.93913 31.7355 2.93913V2.93832Z" fill="#B3B3B3"/>
<path d="M41.662 4.86172C41.662 3.44436 41.6604 2.0278 41.662 0.610443C41.6628 0.0686055 41.7235 0.0111011 42.2727 0.00948125C42.9336 0.00786141 43.5953 0.00786141 44.2562 0.00948125C44.815 0.0111011 44.8733 0.0686055 44.8741 0.646889C44.8757 3.23783 44.8741 5.82957 44.8757 8.42051C44.8766 9.38756 45.2402 10.1788 46.072 10.7012C47.3492 11.5039 49.2121 10.9677 49.7166 9.38027C49.8244 9.04172 49.8632 8.66835 49.8649 8.31117C49.877 5.76073 49.8713 3.21029 49.8722 0.659038C49.8722 0.0686055 49.9313 0.00948125 50.5217 0.00867133C51.2231 0.00786141 51.9253 0.0200102 52.6267 0.00462173C52.9604 -0.00266756 53.0883 0.165796 53.1183 0.458987C53.1297 0.565897 53.1256 0.674426 53.1256 0.782956C53.1256 3.36093 53.1297 5.9381 53.124 8.51608C53.1207 10.0112 52.6672 11.3459 51.6135 12.4296C50.0106 14.0778 48.083 14.6472 45.8468 14.0616C44.0415 13.5886 42.7708 12.4596 42.0718 10.7474C41.824 10.14 41.7098 9.4483 41.6798 8.78821C41.6207 7.48181 41.662 6.17055 41.662 4.86172Z" fill="#B3B3B3"/>
<path d="M59.6533 5.44642C60.5053 5.44642 61.2991 5.44642 62.0928 5.44642C62.7545 5.44642 63.4162 5.45938 64.0771 5.44156C64.465 5.43103 64.6246 5.62298 64.6294 5.97368C64.6384 6.62161 64.6343 7.26955 64.6294 7.9183C64.627 8.24389 64.4764 8.39615 64.1297 8.39291C62.8071 8.38157 61.4837 8.40587 60.1611 8.37914C59.7375 8.37023 59.629 8.51359 59.6444 8.91288C59.6727 9.62642 59.6525 10.3416 59.6525 11.128C59.8396 11.128 59.9951 11.128 60.1506 11.128C61.7704 11.128 63.3903 11.1272 65.0101 11.128C65.5301 11.128 65.5949 11.1944 65.5973 11.7128C65.5997 12.3478 65.5924 12.9819 65.5997 13.6169C65.603 13.9239 65.4645 14.0615 65.1616 14.0607C62.4346 14.0591 59.7076 14.0575 56.9806 14.064C56.693 14.064 56.5562 13.9409 56.5351 13.6687C56.5246 13.5343 56.5229 13.399 56.5229 13.2646C56.5229 9.11941 56.5229 4.97423 56.5229 0.82906C56.5229 0.721341 56.5229 0.612811 56.527 0.505092C56.5416 0.174644 56.6663 0.0013211 57.0462 0.00294094C59.7189 0.0158997 62.3916 0.0134699 65.0652 0.00618062C65.4361 0.0053707 65.6119 0.133338 65.603 0.52291C65.5876 1.15708 65.5884 1.79206 65.603 2.42622C65.6111 2.80932 65.4475 2.94862 65.07 2.94619C63.4097 2.93485 61.7494 2.94943 60.089 2.93485C59.7602 2.93161 59.6355 3.01423 59.6476 3.36006C59.6719 4.03311 59.6549 4.70858 59.6549 5.44723L59.6533 5.44642Z" fill="#B3B3B3"/>
<path d="M19.9716 2.94134C19.0564 2.94134 18.1955 2.91947 17.337 2.94944C16.7773 2.96887 16.6655 2.75505 16.6793 2.29745C16.6963 1.70459 16.6866 1.11011 16.6825 0.516434C16.6801 0.168168 16.8291 0.00618387 17.192 0.00699379C20.0923 0.0126632 22.9918 0.0134732 25.8922 0.00537395C26.2453 0.00456403 26.3903 0.176267 26.3951 0.489707C26.4056 1.1506 26.4056 1.8115 26.3951 2.47239C26.3894 2.78907 26.2356 2.95349 25.8849 2.94701C24.9964 2.93081 24.1079 2.94134 23.1733 2.94134C23.1635 3.13491 23.1473 3.30499 23.1473 3.47426C23.1457 6.77955 23.1473 10.0848 23.1457 13.3909C23.1457 14.0024 23.0866 14.0607 22.4727 14.0624C21.8255 14.064 21.1776 14.0656 20.5305 14.0615C20.0308 14.0583 19.9749 14.0016 19.9741 13.497C19.9724 10.165 19.9741 6.8322 19.9741 3.50018C19.9741 3.33982 19.9741 3.17864 19.9741 2.94296L19.9716 2.94134Z" fill="#B3B3B3"/>
</g>
<defs>
<filter id="filter0_d_114_1491" x="25.3784" y="21.4702" width="27.2422" height="27.2607" filterUnits="userSpaceOnUse" color-interpolation-filters="sRGB">
<feFlood flood-opacity="0" result="BackgroundImageFix"/>
<feColorMatrix in="SourceAlpha" type="matrix" values="0 0 0 0 0 0 0 0 0 0 0 0 0 0 0 0 0 0 127 0" result="hardAlpha"/>
<feOffset dy="4"/>
<feGaussianBlur stdDeviation="2"/>
<feComposite in2="hardAlpha" operator="out"/>
<feColorMatrix type="matrix" values="0 0 0 0 0 0 0 0 0 0 0 0 0 0 0 0 0 0 0.25 0"/>
<feBlend mode="normal" in2="BackgroundImageFix" result="effect1_dropShadow_114_1491"/>
<feBlend mode="normal" in="SourceGraphic" in2="effect1_dropShadow_114_1491" result="shape"/>
</filter>
<clipPath id="clip0_114_1491">
<rect width="82.9456" height="40.7487" fill="white" transform="translate(0.67334)"/>
</clipPath>
</defs>
</svg>
