<?xml version="1.0" encoding="UTF-8"?>
<svg version="1.1" xmlns="http://www.w3.org/2000/svg" width="1024" height="1024">
<path d="M0 0 C337.92 0 675.84 0 1024 0 C1024 337.92 1024 675.84 1024 1024 C686.08 1024 348.16 1024 0 1024 C0 686.08 0 348.16 0 0 Z " fill="#1D1D1D" transform="translate(0,0)"/>
<path d="M0 0 C21.55136318 20.24785331 32.52288824 52.21901802 34.75 81.0703125 C34.87958558 85.59305342 34.86684422 90.1124364 34.84765625 94.63671875 C34.84664917 95.76783081 34.84564209 96.89894287 34.84460449 98.06433105 C34.83940747 102.25383531 34.82544643 106.44332502 34.8125 110.6328125 C34.791875 120.0171875 34.77125 129.4015625 34.75 139.0703125 C6.37 139.0703125 -22.01 139.0703125 -51.25 139.0703125 C-51.5625 116.4453125 -51.5625 116.4453125 -51.63793945 109.39599609 C-51.89142745 92.49783488 -52.77263969 75.43527984 -64.1328125 61.8125 C-74.83566311 51.80295145 -88.02360488 49.35819288 -102.2109375 49.7578125 C-112.87303217 50.36620592 -122.63071355 54.45102605 -130.1796875 62 C-143.72089871 77.86588266 -142.48602589 100.05143639 -141.06396484 119.63183594 C-138.58739486 141.51240743 -124.56568135 161.17416921 -110.25 177.0703125 C-109.61666748 177.78904541 -108.98333496 178.50777832 -108.33081055 179.24829102 C-102.68271539 185.61679674 -96.78537256 191.68981444 -90.7565918 197.6940918 C-89.18225845 199.2630361 -87.61338411 200.83729808 -86.04492188 202.41210938 C-81.2028171 207.25745524 -76.32042872 212.0034062 -71.11157227 216.45825195 C-67.03375272 219.98950998 -63.1654553 223.75586754 -59.25 227.46484375 C-55.2743041 231.21535375 -51.23387982 234.86864491 -47.10791016 238.453125 C-32.66238659 251.02699466 -17.97146591 264.40637317 -6.20703125 279.55859375 C-4.02435894 282.35990771 -1.70234573 285.01325467 0.625 287.6953125 C6.72468228 295.03192726 11.84869884 302.89380974 16.75 311.0703125 C17.18344727 311.79041504 17.61689453 312.51051758 18.06347656 313.25244141 C23.73870916 322.86247325 28.00472305 332.76707703 31.625 343.3203125 C31.98223145 344.34108887 32.33946289 345.36186523 32.70751953 346.41357422 C38.47044373 364.08309688 40.41397424 382.16731153 40.21655273 400.67749023 C40.187464 403.63647483 40.19604562 406.5936655 40.20898438 409.55273438 C40.17043747 445.27262068 32.6868719 483.99042817 7.75 511.0703125 C7.27046875 511.59222168 6.7909375 512.11413086 6.296875 512.65185547 C-15.67826101 536.29871111 -43.78984072 547.38525279 -75.25 552.0703125 C-75.91322266 552.1727124 -76.57644531 552.2751123 -77.25976562 552.38061523 C-104.76438216 556.04943573 -135.28978269 553.91539491 -161.25 544.0703125 C-161.90226562 543.82442383 -162.55453125 543.57853516 -163.2265625 543.32519531 C-183.9385993 535.35825838 -201.06694328 521.90900727 -214.25 504.0703125 C-214.63720215 503.55227051 -215.0244043 503.03422852 -215.42333984 502.50048828 C-231.6194828 480.54282003 -240.37488131 453.76420562 -250.40911865 428.65374756 C-255.02842724 417.10271507 -259.72965241 405.58547928 -264.4375 394.0703125 C-265.28299958 392.00058624 -266.1284587 389.93084346 -266.97387695 387.86108398 C-272.74466919 373.73661281 -278.53200826 359.61894713 -284.32641602 345.50415039 C-302.90776879 300.24097261 -321.42076462 254.94903457 -339.75445557 209.58493042 C-344.10023069 198.83261787 -348.46168295 188.0868269 -352.83984375 177.34765625 C-353.32397736 176.16007721 -353.80811096 174.97249817 -354.30691528 173.74893188 C-356.67456142 167.94207371 -359.04349131 162.13574277 -361.4140625 156.33007812 C-362.29558551 154.16927597 -363.17709644 152.00846889 -364.05859375 149.84765625 C-364.4341893 148.92895248 -364.80978485 148.01024872 -365.19676208 147.06370544 C-369.94348775 135.42377758 -374.58108596 123.74259759 -379.25 112.0703125 C-379.58 255.2903125 -379.91 398.5103125 -380.25 546.0703125 C-410.28 546.0703125 -440.31 546.0703125 -471.25 546.0703125 C-471.25 358.6303125 -471.25 171.1903125 -471.25 -21.9296875 C-348.45439744 -23.02607681 -348.45439744 -23.02607681 -338.25 -13.9296875 C-332.59173712 -8.30017763 -329.32884673 -2.59646826 -326.33984375 4.7578125 C-325.91509262 5.7689209 -325.49034149 6.7800293 -325.05271912 7.82177734 C-323.76719028 10.89757426 -322.50514292 13.98200776 -321.25 17.0703125 C-320.8920636 17.94413574 -320.5341272 18.81795898 -320.16534424 19.71826172 C-318.06259641 24.85978778 -316.00132176 30.0170434 -313.95651245 35.18185425 C-311.81574247 40.58697437 -309.66056134 45.98636109 -307.5078125 51.38671875 C-306.78382515 53.20412315 -306.78382515 53.20412315 -306.04521179 55.0582428 C-299.50001066 71.48213575 -292.88863137 87.87948888 -286.28562164 104.28020096 C-282.89288825 112.70737186 -279.50105564 121.13490535 -276.109375 129.5625 C-275.71921833 130.53191339 -275.32906166 131.50132679 -274.92708206 132.50011635 C-268.34455334 148.85629222 -261.77217602 165.2165321 -255.203125 181.578125 C-229.96613807 244.4660122 -229.96613807 244.4660122 -204.45074463 307.24124146 C-200.71791978 316.3636366 -197.01289359 325.49722365 -193.3125 334.6328125 C-192.70965514 336.12036932 -192.10679088 337.60791828 -191.50390625 339.09545898 C-188.85652385 345.6287389 -186.21199711 352.16316206 -183.57200623 358.69943237 C-179.48015232 368.82937279 -175.37359904 378.95325138 -171.25 389.0703125 C-170.86336182 390.0190625 -170.47672363 390.9678125 -170.07836914 391.9453125 C-167.56097462 398.11912597 -165.03558735 404.28960052 -162.5020752 410.45681763 C-161.67952266 412.46117293 -160.85874751 414.46625874 -160.03991699 416.47213745 C-149.20391097 445.62538531 -149.20391097 445.62538531 -126.25 465.0703125 C-111.70054294 470.91200166 -95.12748014 470.93831152 -80.25 466.0703125 C-67.88458029 460.72353025 -60.0534303 453.44098725 -55.0625 440.9453125 C-46.77813769 416.42762484 -50.48098271 388.01698078 -61.4375 365.0703125 C-74.23834456 340.49602306 -94.09378007 318.75458869 -115.14453125 300.890625 C-117.98905455 298.43135253 -120.74250971 295.87605477 -123.5 293.3203125 C-124.63280895 292.2708295 -125.76562146 291.22135035 -126.8984375 290.171875 C-127.74100098 289.39118652 -127.74100098 289.39118652 -128.60058594 288.59472656 C-131.09970467 286.28500226 -133.61281071 283.990817 -136.125 281.6953125 C-137.6387001 280.30690303 -139.15141878 278.91743536 -140.66357422 277.52734375 C-141.73957096 276.53910914 -142.81675947 275.55217086 -143.89501953 274.56640625 C-152.1453101 267.01408979 -160.18496719 259.26067738 -168.125 251.3828125 C-168.9924585 250.5283252 -169.85991699 249.67383789 -170.75366211 248.79345703 C-176.68820635 242.8674321 -182.0155991 236.61659497 -187.25 230.0703125 C-188.1251879 229.03110069 -189.00530036 227.99597124 -189.89453125 226.96875 C-207.88278734 206.03106814 -220.99352671 182.94234918 -228 156.1953125 C-228.29837769 155.08361694 -228.29837769 155.08361694 -228.6027832 153.94946289 C-232.34810416 138.75448206 -232.65999046 123.00970439 -232.625 107.4453125 C-232.62445618 106.52788269 -232.62391235 105.61045288 -232.62335205 104.66522217 C-232.58392911 90.15411226 -231.80994347 76.2017167 -228.25 62.0703125 C-228.03569336 61.2040625 -227.82138672 60.3378125 -227.60058594 59.4453125 C-219.97647999 29.61474948 -205.41777771 4.74571327 -178.9375 -12.1171875 C-126.58581009 -42.99285717 -46.61592999 -39.9796344 0 0 Z " fill="#F9F8F7" transform="translate(747.25,225.9296875)"/>
<path d="M0 0 C2.46278801 2.46278801 2.99771255 4.70676982 4 8 C3.34 8 2.68 8 2 8 C1.67 149.24 1.34 290.48 1 436 C0.67 436 0.34 436 0 436 C0 292.12 0 148.24 0 0 Z " fill="#2F2F2E" transform="translate(367,336)"/>
<path d="M0 0 C0.33 0.99 0.66 1.98 1 3 C1.99 3.33 2.98 3.66 4 4 C3.01 5.485 3.01 5.485 2 7 C1.6927802 10.19453261 1.6927802 10.19453261 1.73828697 13.92843914 C1.73429091 14.64101762 1.73029485 15.3535961 1.72617769 16.08776787 C1.71514219 18.49377693 1.71841325 20.89955835 1.7215271 23.30558777 C1.7165277 25.04059575 1.71065296 26.7756014 1.70397437 28.51060373 C1.68811721 33.29249851 1.68474056 38.07433464 1.68332577 42.85625255 C1.67964166 48.00759433 1.66449119 53.15890356 1.65071106 58.31022644 C1.62840321 67.23997344 1.61341116 76.16970891 1.60334396 85.09947777 C1.58877787 98.01052874 1.56324691 110.92153956 1.53501268 123.83256701 C1.48950698 144.77825997 1.45290782 165.7239587 1.421875 186.66967773 C1.39170491 207.02027398 1.35736174 227.3708561 1.31738281 247.72143555 C1.31492126 248.97518552 1.31245972 250.22893549 1.30992357 251.52067789 C1.29754927 257.81017605 1.28509268 264.09967404 1.27259517 270.38917196 C1.16897083 322.5927616 1.07978626 374.79636886 1 427 C0.67 427 0.34 427 0 427 C0 286.09 0 145.18 0 0 Z " fill="#282828" transform="translate(369,345)"/>
<path d="M0 0 C37.95 0 75.9 0 115 0 C115 0.99 115 1.98 115 3 C77.05 3 39.1 3 0 3 C0 2.01 0 1.02 0 0 Z " fill="#2A2B2A" transform="translate(276,201)"/>
<path d="M0 0 C2.18994248 3.28491373 2.35277339 4.83095639 2.625 8.6875 C2.69976563 9.68136719 2.77453125 10.67523437 2.8515625 11.69921875 C2.92503906 12.83810547 2.92503906 12.83810547 3 14 C3.33 14 3.66 14 4 14 C4 24.23 4 34.46 4 45 C0.625 41.625 0.625 41.625 0.56762695 37.80395508 C0.54783279 36.96331009 0.52803864 36.1226651 0.50764465 35.25654602 C0.50125473 34.35333115 0.49486481 33.45011627 0.48828125 32.51953125 C0.47033005 31.59154221 0.45237885 30.66355316 0.43388367 29.70744324 C0.37968709 26.74250843 0.345855 23.77773545 0.3125 20.8125 C0.27933518 18.80271181 0.24484631 16.792945 0.20898438 14.78320312 C0.12395521 9.85558535 0.05718862 4.92801636 0 0 Z " fill="#2A2929" transform="translate(786,600)"/>
<path d="M0 0 C2.46278801 2.46278801 2.99771255 4.70676982 4 8 C3.34 8 2.68 8 2 8 C1.67 15.92 1.34 23.84 1 32 C0.67 32 0.34 32 0 32 C0 21.44 0 10.88 0 0 Z " fill="#1E201F" transform="translate(367,336)"/>
<path d="M0 0 C7.47394574 -0.37369729 13.82140651 0.95938459 21 3 C21 3.66 21 4.32 21 5 C19.35 5 17.7 5 16 5 C16 4.34 16 3.68 16 3 C10.72 2.34 5.44 1.68 0 1 C0 0.67 0 0.34 0 0 Z " fill="#E6E6E5" transform="translate(379,203)"/>
<path d="M0 0 C1.485 0.99 1.485 0.99 3 2 C3.51171875 5.0390625 3.51171875 5.0390625 3.6875 8.625 C3.75324219 9.81351562 3.81898438 11.00203125 3.88671875 12.2265625 C3.92410156 13.14179688 3.96148438 14.05703125 4 15 C3.01 15.33 2.02 15.66 1 16 C1.33 13.36 1.66 10.72 2 8 C1.34 8 0.68 8 0 8 C0 5.36 0 2.72 0 0 Z " fill="#292929" transform="translate(513,352)"/>
<path d="M0 0 C1.4540625 0.0309375 1.4540625 0.0309375 2.9375 0.0625 C0.9375 3.0625 0.9375 3.0625 -1.2265625 3.57421875 C-2.44472656 3.66123047 -2.44472656 3.66123047 -3.6875 3.75 C-4.50476563 3.81574219 -5.32203125 3.88148438 -6.1640625 3.94921875 C-6.79054688 3.98660156 -7.41703125 4.02398437 -8.0625 4.0625 C-8.3925 3.0725 -8.7225 2.0825 -9.0625 1.0625 C-7.8559375 1.0934375 -7.8559375 1.0934375 -6.625 1.125 C-3.4084517 1.0465476 -3.39792468 0.0693454 0 0 Z " fill="#282827" transform="translate(619.0625,193.9375)"/>
<path d="M0 0 C0.66 0.33 1.32 0.66 2 1 C0.68 3.64 -0.64 6.28 -2 9 C-2.66 8.34 -3.32 7.68 -4 7 C-3.625 4.875 -3.625 4.875 -3 3 C-2.34 3 -1.68 3 -1 3 C-0.67 2.01 -0.34 1.02 0 0 Z " fill="#EAEAEA" transform="translate(771,709)"/>
<path d="M0 0 C3.63 0 7.26 0 11 0 C7 2 7 2 4 3 C2.68 2.01 1.36 1.02 0 0 Z " fill="#131313" transform="translate(663,778)"/>
<path d="M0 0 C0.66 0.33 1.32 0.66 2 1 C0.68 3.31 -0.64 5.62 -2 8 C-2.66 7.67 -3.32 7.34 -4 7 C-2.79618552 4.50638429 -1.54571278 2.31856917 0 0 Z " fill="#F1F1F1" transform="translate(544,234)"/>
</svg>
